<svg xmlns="http://www.w3.org/2000/svg" viewBox="0 0 200 200">
  <defs>
    <linearGradient id="bg" x1="0%" y1="0%" x2="100%" y2="100%">
      <stop offset="0%" style="stop-color:#FFE4B5"/>
      <stop offset="100%" style="stop-color:#DEB887"/>
    </linearGradient>
  </defs>
  <circle cx="100" cy="100" r="95" fill="url(#bg)"/>
  <!-- Face -->
  <ellipse cx="100" cy="110" rx="60" ry="55" fill="#8B4513"/>
  <ellipse cx="100" cy="115" rx="40" ry="35" fill="#D2691E"/>
  <!-- Ears -->
  <circle cx="35" cy="90" r="25" fill="#8B4513"/>
  <circle cx="35" cy="90" r="15" fill="#DEB887"/>
  <circle cx="165" cy="90" r="25" fill="#8B4513"/>
  <circle cx="165" cy="90" r="15" fill="#DEB887"/>
  <!-- Confused/disgusted eyes - one raised eyebrow -->
  <line x1="60" y1="90" x2="90" y2="85" stroke="#2C1810" stroke-width="4" stroke-linecap="round"/>
  <path d="M 110 90 Q 125 80 140 90" stroke="#2C1810" stroke-width="3" fill="none"/>
  <circle cx="75" cy="102" r="10" fill="white"/>
  <circle cx="77" cy="102" r="5" fill="#2C1810"/>
  <circle cx="125" cy="102" r="10" fill="white"/>
  <circle cx="123" cy="102" r="5" fill="#2C1810"/>
  <!-- Disgusted wavy mouth -->
  <path d="M 75 145 Q 90 135 100 145 Q 110 155 125 145" stroke="#2C1810" stroke-width="4" fill="none"/>
  <!-- Green tint for disgust -->
  <circle cx="85" cy="130" r="5" fill="#90EE90" opacity="0.5"/>
  <circle cx="115" cy="130" r="5" fill="#90EE90" opacity="0.5"/>
</svg>
